<svg viewBox="0 0 2048 1365" xmlns="http://www.w3.org/2000/svg">
<style>
  @keyframes spin-cw { to { transform: rotate(360deg); } }
  @keyframes spin-ccw { to { transform: rotate(-360deg); } }
  .vault-body    { animation: spin-cw  8s linear infinite; transform-origin: 1024px 682px; }
  .outer-handles { animation: spin-ccw 8s linear infinite; transform-origin: 1024px 682px; }
</style>

  <!-- CORE — static -->
  <g fill="rgb(247,247,247)">
    <path d="M 1012.36 460.226 C 1135.77 453.38 1241.38 547.819 1248.32 671.221 C 1255.27 794.623 1160.91 900.313 1037.52 907.352 C 913.981 914.4 808.149 819.916 801.198 696.377 C 794.248 572.838 888.815 467.08 1012.36 460.226 z M 1065.89 665.924 C 1070.62 676.232 1080.97 706.221 1084.55 717.812 C 1057.96 686.146 1033.13 653.071 1007.31 620.835 C 1000.6 612.446 980.245 585.327 973.313 578.735 C 966.624 578.277 920.775 573.324 919.777 574.151 C 923.396 579 928.647 581.45 932.087 585.888 C 941.012 597.399 949.613 609.097 958.704 620.508 L 1046.74 732.825 C 1051.67 739.119 1077.62 773.007 1081.99 776.61 C 1086.89 780.651 1123.07 791.321 1133.17 796.002 L 1109.75 776.255 C 1109.57 755.574 1111.35 578.716 1108.47 570.61 C 1096.82 599.146 1083.28 627.195 1071.03 655.498 C 1069.59 658.808 1067.71 662.843 1065.89 665.924 z M 952.569 766.765 C 962.929 739.432 973.43 712.153 984.071 684.929 C 973.957 657.243 970.036 648.226 950.128 625.197 C 947.854 622.567 942.43 615.077 940.005 613.449 L 939.922 800.536 C 943.599 788.947 948.075 778.04 952.569 766.765 z"/>
  </g>

  <!-- VAULT BODY — outer ring + inner ring + inner handles, all CW together -->
  <g class="vault-body" fill="rgb(247,247,247)">
    <path d="M 844.698 997.438 C 866.552 1005.78 880.572 1016.14 907.881 1024.72 C 1010.96 1057.08 1108.98 1048.15 1204.64 997.751 C 1208.41 1002.56 1212.06 1009.64 1215.11 1015.09 L 1208.55 1018.86 C 1179.1 1033.74 1157.19 1042.72 1125.01 1051.21 C 1031.11 1076 919.059 1063.81 834.824 1014.51 C 838.259 1007.84 840.697 1003.7 844.698 997.438 z"/>
    <path d="M 996.58 306.4 C 1002.86 305.267 1019.75 305.71 1027.19 305.696 C 1094.49 305.573 1153.06 321.291 1212.39 352.507 C 1209.82 357.696 1205.26 364.929 1202.23 370.083 C 1159.46 348.217 1100.12 327.111 1051.75 326.866 C 982.247 318.746 909.336 339.737 847.665 370.581 C 843.885 364.446 840.961 359.38 837.562 352.997 C 894.606 322.371 933.458 313.354 996.58 306.4 z"/>
    <path d="M 1391.04 710.972 L 1411.61 710.945 C 1411.34 715.795 1410.97 720.639 1410.51 725.475 C 1400.27 825.939 1348.39 914.87 1270.54 978.172 C 1269.44 979.207 1265.58 981.966 1264.17 983.03 C 1260.37 976.982 1257.32 971.552 1253.9 965.317 C 1264.53 957.371 1276.27 946.937 1285.66 937.609 C 1337.09 887.146 1372.05 822.301 1385.93 751.598 C 1388.13 739.966 1391 722.687 1391.04 710.972 z"/>
    <path d="M 639.325 711.012 L 659.738 710.902 C 662.841 801.951 722.239 911.634 796.303 964.502 L 789.331 976.62 C 787.356 979.928 788.27 979.408 785.297 981.129 C 782.271 980.406 782.124 979.702 779.715 977.718 C 695.987 908.757 648.559 819.335 639.325 711.012 z"/>
    <path d="M 787.352 385.84 C 791.287 387.719 796.136 397.614 798.698 402.067 C 785.255 415.038 772.912 423.838 757.815 439.296 C 714.026 484.766 683.206 541.129 668.556 602.532 C 665.301 616.246 662.495 637.139 659.491 651.425 C 659.309 652.291 655.721 652.013 654.25 652.046 L 639.72 652.144 C 640.299 641.959 643.024 624.792 644.903 614.693 C 659.409 538.951 696.906 469.52 752.288 415.854 C 761.529 406.872 776.853 393.045 787.352 385.84 z"/>
    <path d="M 1261.5 384.367 C 1267.01 386.705 1285.58 403.641 1290.47 408.146 C 1341.41 454.685 1378.59 514.308 1397.98 580.52 C 1400.83 590.076 1413.83 643.87 1410.13 650.735 C 1406.4 652.954 1405.83 652.128 1400.75 652.083 L 1399.69 652.11 C 1398.24 652.138 1391.61 652.266 1391.4 650.806 C 1387.06 620.136 1381.77 593.614 1371.19 564.165 C 1353.32 515.068 1324.82 470.528 1287.72 433.735 C 1275.27 421.418 1263.24 412.322 1251.42 400.957 C 1254.64 395.34 1258 389.808 1261.5 384.367 z"/>
    <path d="M 1013.73 365.325 C 1061.95 362.915 1140.6 379.087 1180.49 406.972 L 1173.27 420.729 C 1140.93 397.6 1078.38 383.31 1039.01 381.226 C 982.599 380.367 925.021 390.279 876.378 420.547 L 868.971 406.735 C 893.228 389.456 948.093 372.552 977.767 368.998 C 989.866 367.55 1001.81 367.245 1013.73 365.325 z"/>
    <path d="M 877.238 941.399 C 894.396 952.358 924.808 963.854 944.295 969.259 C 1020.87 990.597 1102.78 980.631 1172 941.556 C 1174.54 945.054 1178.56 949.848 1178.61 953.944 C 1176.87 957.801 1176.84 956.882 1172.38 959.37 C 1069.09 1009.75 971.226 1008.45 869.38 955.183 C 871.834 950.312 874.433 946.051 877.238 941.399 z"/>
    <path d="M 820.467 440.162 C 823.243 444.327 826.004 449.467 828.512 453.881 C 775.625 502.608 739.732 561.228 729.304 633.336 C 728.853 636.455 727.321 650.275 725.965 651.876 L 720.676 652.104 C 716.221 652.088 714.782 652.802 711.718 650.506 C 709.897 645.575 716.925 611.888 718.583 605.131 C 731.682 552.074 758.37 503.342 796.02 463.73 C 804.147 455.011 812.048 448.397 820.467 440.162 z"/>
    <path d="M 1322.32 710.95 L 1338.72 710.962 C 1330.18 777.997 1310.25 829.76 1266.5 882.743 C 1256.59 894.755 1246.64 905.873 1234.33 915.43 C 1231.36 918.376 1231.59 919.175 1228.05 919.613 C 1224.65 917.744 1222.35 911.888 1220.44 908.129 C 1267.94 861.327 1296.23 823.72 1314.39 757.095 C 1317.92 744.172 1322 724.156 1322.32 710.95 z"/>
    <path d="M 1228.86 440.722 L 1229.3 441.079 C 1291.82 491.589 1330.14 571.289 1338.75 650.57 L 1337.58 651.959 L 1334.25 652.042 C 1333.04 652.075 1331.83 652.097 1330.62 652.108 C 1319.67 652.176 1323.22 651.478 1321.94 641.868 C 1314.8 587.908 1293.54 537.353 1259.67 494.7 C 1247.67 479.586 1234.82 467.222 1220.99 453.596 C 1223.68 448.431 1225.55 445.548 1228.86 440.722 z"/>
    <path d="M 710.736 710.959 L 726.931 710.932 C 735.346 794.46 770.086 851.434 829.183 908.156 L 823.655 917.554 C 822.594 919.318 822.726 919.254 820.952 920.271 C 820.143 919.996 819.243 919.738 818.572 919.153 C 770.273 877.087 736.146 822.146 719.603 760.261 C 715.117 743.482 713.544 727.595 710.736 710.959 z"/>
    <path d="M 1184.13 895.132 C 1187.93 898.836 1240.76 991.993 1245.66 1001.86 C 1244.44 1004.79 1242.56 1005.2 1239.42 1007.24 C 1236.39 1005.16 1182.35 909.574 1177.03 900.213 L 1184.13 895.132 z"/>
    <path d="M 863.458 894.95 L 871.159 900.101 C 852.06 930.56 828.686 973.256 810.794 1005.03 C 807.056 1004.19 804.972 1002.55 803.857 998.926 C 808.787 988.294 820.349 969.582 826.673 958.648 C 838.818 937.348 851.08 916.115 863.458 894.95 z"/>
    <path d="M 1235.01 363.436 C 1238.24 364.44 1240.23 365.46 1242.33 367.967 C 1241.82 371.466 1190.92 458.348 1184.84 468.968 C 1183.05 468.765 1178.51 465.547 1176.65 464.373 C 1196.3 432.026 1215.82 396.461 1235.01 363.436 z"/>
    <path d="M 812.443 365.812 L 813.246 366.035 C 817.501 369.44 864.386 452.455 870.446 463.335 C 869.707 466.072 868.13 466.3 865.202 468.242 L 863.826 468.822 C 860.642 465.695 810.056 378.022 807.043 370.71 C 808.294 367.838 809.484 367.77 812.443 365.812 z"/>
    <path d="M 1295.28 677.204 L 1371.9 677.175 C 1385.91 677.155 1402.07 676.702 1415.81 677.522 C 1417.39 679.739 1416.97 683.05 1416.99 685.927 L 1340.02 685.913 C 1327.3 685.945 1308.76 686.542 1296.42 685.588 C 1294.62 683.223 1295.2 680.4 1295.28 677.204 z"/>
    <path d="M 635.726 677.158 C 671.036 677.251 715.817 675.837 750.17 677.402 C 751.638 679.266 751.267 683.31 751.309 685.927 C 714.993 685.713 672.863 687.006 637.092 685.661 C 635.332 683.091 635.879 680.761 635.726 677.158 z"/>
  </g>

  <!-- OUTER HANDLES — counter-clockwise -->
  <g class="outer-handles" fill="rgb(247,247,247)">
    <path d="M 712 189.21 C 714.746 192.12 722.502 206.611 724.885 210.808 C 745.906 247.819 767.792 284.42 788.63 321.525 C 787.809 324.453 785.495 325.217 782.47 327.412 C 777.805 322.182 762.066 293.789 757.344 285.583 L 704.627 193.981 L 712 189.21 z"/>
    <path d="M 1335.75 188.886 L 1343.25 194.084 C 1317.64 237.376 1293 281.907 1267.41 325.398 C 1265 323.929 1262.2 321.894 1259.82 320.269 L 1335.75 188.886 z"/>
    <path d="M 778.314 1042.38 L 785.863 1047.26 C 763.41 1089.9 734.658 1133.05 712.596 1175.61 L 704.318 1170.35 C 711.209 1160.44 722.487 1139.24 729.031 1127.88 L 778.314 1042.38 z"/>
    <path d="M 1269.91 1044.97 C 1274.04 1049.24 1290.26 1078.19 1294.28 1085.29 C 1310.32 1113.57 1327.47 1141.99 1343.03 1170.47 L 1336.4 1175.12 C 1333.91 1173.56 1269.97 1062.03 1263.89 1050.42 L 1264.62 1048.3 C 1266.9 1047.54 1268.03 1046.44 1269.91 1044.97 z"/>
    <path d="M 433.956 677.223 C 482.582 677.303 539.212 675.667 587.035 677.444 C 588.201 679.059 587.912 683.455 588.01 685.911 L 490.079 685.882 C 474.221 685.926 450.079 686.716 434.802 685.568 C 433.65 683.618 433.971 679.69 433.956 677.223 z"/>
    <path d="M 1464.97 677.185 L 1555.48 677.219 C 1573 677.181 1593.83 676.609 1611.12 677.437 C 1612.54 679.267 1612.26 683.37 1612.34 685.931 C 1571.15 685.32 1529.73 686.199 1488.53 685.966 C 1481.07 685.923 1473.79 686.172 1466.35 685.566 C 1464.46 682.368 1465.09 681.31 1464.97 677.185 z"/>
  </g>
</svg>
