<svg version="1.1" xmlns="http://www.w3.org/2000/svg" style="display: block;" viewBox="0 0 1816 1900" width="454" height="475" preserveAspectRatio="none">
<defs>
	<linearGradient id="Gradient1" gradientUnits="userSpaceOnUse" x1="485.839" y1="1785.59" x2="832.175" y2="1386.22">
		<stop class="stop0" offset="0" stop-opacity="1" stop-color="rgb(5,110,225)"/>
		<stop class="stop1" offset="1" stop-opacity="1" stop-color="rgb(6,139,237)"/>
	</linearGradient>
	<linearGradient id="Gradient2" gradientUnits="userSpaceOnUse" x1="1007.64" y1="-151.694" x2="749.794" y2="1162.02">
		<stop class="stop0" offset="0" stop-opacity="1" stop-color="rgb(36,224,173)"/>
		<stop class="stop1" offset="1" stop-opacity="1" stop-color="rgb(2,175,211)"/>
	</linearGradient>
	<linearGradient id="Gradient3" gradientUnits="userSpaceOnUse" x1="1179.32" y1="-260.137" x2="513.39" y2="1327.38">
		<stop class="stop0" offset="0" stop-opacity="1" stop-color="rgb(13,186,170)"/>
		<stop class="stop1" offset="1" stop-opacity="1" stop-color="rgb(5,135,234)"/>
	</linearGradient>
	<linearGradient id="Gradient4" gradientUnits="userSpaceOnUse" x1="316.72" y1="611.348" x2="783.601" y2="342.848">
		<stop class="stop0" offset="0" stop-opacity="1" stop-color="rgb(4,127,230)"/>
		<stop class="stop1" offset="1" stop-opacity="1" stop-color="rgb(9,159,255)"/>
	</linearGradient>
	<linearGradient id="Gradient5" gradientUnits="userSpaceOnUse" x1="1295.62" y1="793.329" x2="951.973" y2="985.611">
		<stop class="stop0" offset="0" stop-opacity="1" stop-color="rgb(13,207,180)"/>
		<stop class="stop1" offset="1" stop-opacity="1" stop-color="rgb(0,138,207)"/>
	</linearGradient>
</defs>
<path transform="translate(0,0)" fill="url(#Gradient5)" d="M 1185.93 708.338 C 1205.75 707.319 1233.45 707.378 1253.33 708.048 C 1255.66 737.416 1252.2 772.62 1253.71 802.484 C 1254.43 816.797 1255.47 830.909 1256.16 845.19 C 1256.97 862.026 1254.26 878.632 1253.46 895.385 C 1252.43 909.896 1255.02 956.332 1251.14 967.551 C 1243.49 970.211 1196.28 969.128 1184.34 969.113 L 1079.09 968.998 C 1056.2 968.977 1031.62 968.53 1008.9 969.814 C 988.372 972.613 958.305 969.34 936.549 968.117 C 939.382 964.417 941.602 960.134 944.449 956.701 C 953.045 946.333 961.859 935.811 970.73 925.684 C 1017.86 872.151 1066.83 820.255 1117.53 770.089 C 1133.75 753.821 1149.96 737.417 1166.34 721.303 C 1172.41 715.324 1177.59 710.721 1185.93 708.338 z"/>
<path transform="translate(0,0)" fill="url(#Gradient4)" d="M 699.034 192.378 C 701.054 192.772 700.164 192.277 701.583 194.061 C 702.034 199.439 701.868 204.324 701.692 209.708 C 700.719 239.474 700.948 269.289 700.939 299.068 L 700.996 544.346 C 701.022 562.973 701.015 581.497 701.49 600.148 C 701.75 610.38 706.131 640.062 701.831 647.332 C 688.938 669.871 668.279 686.806 651.379 705.907 C 638.572 720.383 626.052 734.432 613.02 748.721 C 588.913 775.155 567.721 805.904 542.128 830.852 C 517.669 805.336 496.08 777.884 470.165 753.675 C 463.085 747.062 456.241 739.935 449.174 733.227 C 417.444 703.997 382.199 684.978 344.554 665.514 C 342.96 650.516 343.87 617.197 343.868 600.867 L 343.871 478.113 L 343.886 326.762 C 343.884 303.503 342.675 271.071 344.244 248.897 C 350.099 243.192 520.195 218.804 543.475 215.156 C 576.776 209.761 610.119 204.627 643.5 199.753 C 659.919 197.32 682.718 193.679 699.034 192.378 z"/>
<path transform="translate(0,0)" fill="url(#Gradient3)" d="M 1761.55 0 L 1795.54 0 L 1814.62 0 L 1700.72 282.446 C 1685.9 319.974 1671.91 358.593 1656.71 395.998 C 1651.33 409.237 1643.62 429.06 1636.83 441.084 C 1632.46 437.123 1629.96 433.65 1626.46 428.954 C 1601.57 395.651 1580.41 359.738 1555.82 326.23 C 1553.16 322.604 1550.66 318.841 1547.56 315.577 C 1504.98 343.556 1451.74 384.973 1411.18 416.336 C 1363.17 452.955 1316.38 491.158 1270.91 530.881 C 1206.78 587.761 1144.61 646.812 1084.51 707.93 C 1050.02 742.429 1014.5 775.888 983.203 813.184 C 973.861 824.315 961.039 835.156 951.071 846.194 C 872.154 934.934 796.027 1026.12 722.8 1119.61 C 702.501 1145.07 683.838 1172.52 664.61 1198.73 C 646.624 1223.25 628.38 1247.18 610.64 1272 C 592.143 1297.88 574.131 1325.25 553.552 1349.41 C 549.843 1343.23 545.119 1337.81 540.457 1332.32 C 528.217 1317.93 516.701 1303.02 504.684 1288.45 C 474.594 1251.46 444.066 1214.83 413.105 1178.56 C 400.52 1163.97 387.265 1149.73 374.577 1134.98 L 277.889 1021.73 C 266.349 1008.3 241.045 973.404 226.488 968.725 C 168.257 969.377 110.387 967.693 52.2562 972.064 C 37.1675 973.198 16.5342 968.806 0 969.13 L 0 710.15 L 1.42903 709.8 C 8.72553 707.381 19.1963 707.951 27.0931 708.042 C 37.2007 707.422 53.3101 707.924 63.7457 707.923 L 135.66 707.906 C 162.531 707.905 190.178 707.554 216.406 708.235 C 320.54 711.38 399.719 764.722 464.345 843.069 C 473.459 854.119 537.49 928.682 544.464 931.727 C 555.447 924.353 607.312 856.995 620.014 841.914 C 651.115 805.129 682.797 768.841 715.05 733.062 C 718.687 729.001 722.874 725.235 726.415 721.24 C 774.47 667.011 826.699 617.156 877.752 565.753 C 890.26 553.159 903.15 539.434 916.065 527.366 C 1008.94 440.369 1106.06 358.031 1207.09 280.655 C 1254.13 245.463 1301.68 210.973 1349.75 177.199 C 1359.93 169.903 1398.32 144.144 1404.51 137.262 C 1404.7 133.618 1401.84 127.699 1399.76 124.595 C 1374.65 87.0053 1344.42 51.0379 1320.84 12.5366 C 1330.05 11.9763 1339.04 11.9746 1348.26 11.9166 C 1372.9 11.7614 1397.61 11.5961 1422.25 11.1229 C 1434.23 10.7319 1446.12 8.42355 1458.1 8.15076 C 1505.3 7.07594 1553.07 9.91318 1600.05 4.823 C 1606.97 4.07298 1613.4 3.73679 1620.31 3.65547 L 1712.69 3.33749 C 1726.4 3.28235 1740.49 3.35173 1754.21 2.99211 C 1758.59 2.87704 1758.62 2.36237 1761.55 0 z"/>
<path transform="translate(0,0)" fill="url(#Gradient2)" d="M 1761.55 0 L 1795.54 0 C 1798.98 4.13356 1801.54 4.58689 1806.31 6.96237 L 1805.53 8.10493 C 1804.33 7.62568 1803.56 7.40763 1802.24 7.21617 C 1796.81 10.4378 1793.5 14.6991 1789.1 17.2313 C 1721.77 55.9141 1655.26 100.19 1590.86 143.619 C 1311.81 327.88 1056.66 546.012 831.259 793.028 C 768.475 861.341 707.901 931.652 649.631 1003.85 C 626.161 1032.95 603.856 1063.43 580.263 1092.4 C 571.933 1102.63 560.666 1117.83 551.952 1127.02 C 523.578 1097.34 495.522 1067.35 467.79 1037.07 C 364.945 922.807 259.6 799.548 113.001 740.901 C 83.777 729.21 52.5923 724.002 21.4882 721.34 C 15.062 720.79 10.3965 721.119 8.42177 714.124 C 10.5256 707.081 21.1734 712.399 27.2261 709.558 L 27.0931 708.042 C 37.2007 707.422 53.3101 707.924 63.7457 707.923 L 135.66 707.906 C 162.531 707.905 190.178 707.554 216.406 708.235 C 320.54 711.38 399.719 764.722 464.345 843.069 C 473.459 854.119 537.49 928.682 544.464 931.727 C 555.447 924.353 607.312 856.995 620.014 841.914 C 651.115 805.129 682.797 768.841 715.05 733.062 C 718.687 729.001 722.874 725.235 726.415 721.24 C 774.47 667.011 826.699 617.156 877.752 565.753 C 890.26 553.159 903.15 539.434 916.065 527.366 C 1008.94 440.369 1106.06 358.031 1207.09 280.655 C 1254.13 245.463 1301.68 210.973 1349.75 177.199 C 1359.93 169.903 1398.32 144.144 1404.51 137.262 C 1404.7 133.618 1401.84 127.699 1399.76 124.595 C 1374.65 87.0053 1344.42 51.0379 1320.84 12.5366 C 1330.05 11.9763 1339.04 11.9746 1348.26 11.9166 C 1372.9 11.7614 1397.61 11.5961 1422.25 11.1229 C 1434.23 10.7319 1446.12 8.42355 1458.1 8.15076 C 1505.3 7.07594 1553.07 9.91318 1600.05 4.823 C 1606.97 4.07298 1613.4 3.73679 1620.31 3.65547 L 1712.69 3.33749 C 1726.4 3.28235 1740.49 3.35173 1754.21 2.99211 C 1758.59 2.87704 1758.62 2.36237 1761.55 0 z"/>
<path transform="translate(0,0)" fill="rgb(5,117,230)" d="M 1.42903 709.8 C 19.0821 735.122 43.1988 755.518 64.1351 778.352 C 101.12 818.689 137.36 859.266 171.746 901.878 C 189.021 923.136 210.549 946.649 226.488 968.725 C 168.257 969.377 110.387 967.693 52.2562 972.064 C 37.1675 973.198 16.5342 968.806 0 969.13 L 0 710.15 L 1.42903 709.8 z"/>
<path transform="translate(0,0)" fill="url(#Gradient1)" d="M 343.951 1203.73 C 350.55 1210.44 358.803 1217.44 364.811 1224.37 C 427.085 1296.18 486.427 1370.77 544.069 1446.36 C 547.27 1450.56 552.278 1454.68 556.28 1458.1 C 563.539 1450.68 578.947 1427.21 585.699 1417.69 L 652.611 1322.8 C 660.215 1312.09 668.093 1301.57 676.237 1291.26 C 683.835 1281.62 694.775 1268.89 700.228 1258.18 C 699.795 1285.58 702.417 1319.81 701.174 1345.56 C 694.451 1484.9 718.123 1631.61 896.182 1612.51 C 948.942 1606.86 972.775 1589.53 1018.96 1568.36 C 1022.08 1587.04 1029.97 1608.16 1035.77 1626.46 C 1046.95 1661.79 1059.33 1698.26 1071.7 1733.13 C 1079.82 1756 1090.52 1799.85 1100.87 1818.68 C 1025.9 1868.3 948.936 1889.09 859.725 1896.65 C 852.659 1897.25 832.7 1897.02 827.874 1900 L 800.149 1900 C 799.289 1899.47 722.755 1892.26 712.134 1890.37 C 667.064 1882.33 624.69 1871.53 582.659 1852.22 C 479.314 1802.87 409.645 1721.21 373.225 1613.01 C 341.178 1517.82 342.776 1423.89 343.871 1325.2 C 344.298 1286.73 342.368 1241.21 343.951 1203.73 z"/>
</svg>